<svg width="48" height="48" viewBox="0 0 48 48" fill="none" xmlns="http://www.w3.org/2000/svg">
    <path
        d="M46.4496 16.9036L32.0601 14.7137L25.6276 1.05787C25.4519 0.683982 25.1629 0.38131 24.8059 0.197333C23.9104 -0.265577 22.8223 0.120182 22.3746 1.05787L15.9421 14.7137L1.55262 16.9036C1.1559 16.963 0.793187 17.1588 0.515486 17.4556C0.17976 17.8169 -0.00524003 18.303 0.00113608 18.8072C0.00751218 19.3113 0.204743 19.7921 0.54949 20.144L10.9605 30.7731L8.50082 45.7821C8.44314 46.1312 8.48003 46.4903 8.60732 46.8186C8.73461 47.1469 8.94719 47.4313 9.22096 47.6395C9.49474 47.8477 9.81875 47.9715 10.1563 47.9967C10.4938 48.0219 10.8313 47.9475 11.1305 47.7821L24.0011 40.696L36.8717 47.7821C37.2231 47.9779 37.6311 48.0432 38.0222 47.972C39.0083 47.794 39.6714 46.8147 39.5014 45.7821L37.0417 30.7731L47.4527 20.144C47.7361 19.8532 47.9231 19.4734 47.9798 19.0579C48.1328 18.0194 47.4414 17.0579 46.4496 16.9036Z"
        fill="white" />
</svg>