<svg width="48" height="48" viewBox="0 0 48 48" fill="none" xmlns="http://www.w3.org/2000/svg">
    <path fill-rule="evenodd" clip-rule="evenodd"
        d="M30.0276 17.4389L29.3461 15.9921L24.0011 4.64486L18.6561 15.9921L17.9746 17.4389L16.3935 17.6796L4.15873 19.5416L13.1037 28.6739L14.1666 29.7592L13.921 31.2583L11.8382 43.9678L22.5542 38.068L24.0011 37.2714L25.448 38.068L36.164 43.9678L34.0812 31.2583L33.8355 29.7592L34.8985 28.6739L43.8435 19.5416L31.6087 17.6796L30.0276 17.4389ZM46.4496 16.9036C47.4414 17.0579 48.1328 18.0194 47.9798 19.0579C47.9231 19.4734 47.7361 19.8532 47.4527 20.144L37.0417 30.7731L39.5014 45.7821C39.6714 46.8147 39.0083 47.794 38.0222 47.972C37.6311 48.0432 37.2231 47.9779 36.8717 47.7821L24.0011 40.696L11.1305 47.7821C10.8313 47.9475 10.4938 48.0219 10.1563 47.9967C9.81875 47.9715 9.49474 47.8477 9.22096 47.6395C8.94719 47.4313 8.73461 47.1469 8.60732 46.8186C8.48003 46.4903 8.44314 46.1312 8.50082 45.7821L10.9605 30.7731L0.54949 20.144C0.204743 19.7921 0.00751218 19.3113 0.00113608 18.8072C-0.00524003 18.303 0.17976 17.8169 0.515486 17.4556C0.793187 17.1588 1.1559 16.963 1.55262 16.9036L15.9421 14.7137L22.3746 1.05787C22.8223 0.120182 23.9104 -0.265577 24.8059 0.197333C25.1629 0.38131 25.4519 0.683982 25.6276 1.05787L32.0601 14.7137L46.4496 16.9036Z"
        fill="white" />
</svg>